<?xml version="1.0"?>
<svg xmlns="http://www.w3.org/2000/svg" xmlns:xlink="http://www.w3.org/1999/xlink" xmlns:svgjs="http://svgjs.com/svgjs" version="1.1" width="512" height="512" x="0" y="0" viewBox="0 0 32 32" style="enable-background:new 0 0 512 512" xml:space="preserve" class=""><g><g xmlns="http://www.w3.org/2000/svg" id="Layer_6" data-name="Layer 6"><path d="m29 17h-26a1 1 0 0 1 0-2h26a1 1 0 0 1 0 2zm1 6a1 1 0 0 0 -1-1h-26a1 1 0 0 0 0 2h26a1 1 0 0 0 1-1zm0-14a1 1 0 0 0 -1-1h-26a1 1 0 0 0 0 2h26a1 1 0 0 0 1-1z" fill="#ffffff" data-original="#000000" class=""/></g></g></svg>
