<?xml version="1.0" encoding="UTF-8"?>
<svg id="Layer_1" data-name="Layer 1" xmlns="http://www.w3.org/2000/svg" viewBox="0 0 2274.21 2851.09">
  <defs>
    <style>
      .cls-1 {
        fill: #fff;
      }
    </style>
  </defs>
  <g>
    <g>
      <path class="cls-1" d="m51.38,1096.16c-18.59,16.93-35.19,35.93-49.46,56.64l13.89,265.77c.24,4.7,4.24,8.32,8.94,8.08.87-.04,1.72-.22,2.53-.52l1.89-.7c3.21-1.17,5.42-4.15,5.59-7.57l16.62-321.7Z"/>
      <path class="cls-1" d="m193.93,1006.84c-20.77,7.77-40.12,16.16-56.71,27.12l18.07,339.28c.24,4.7,4.25,8.31,8.95,8.06.65-.03,1.3-.14,1.93-.33l2.17-.63c3.5-1,5.98-4.11,6.17-7.75l19.42-365.76Z"/>
      <path class="cls-1" d="m334.03,950.23c-2.63,1.77-5.33,3.54-8.19,5.29-16.43,10.09-33.6,18.13-50.85,25.15l19.59,356.16c.25,4.7,4.26,8.3,8.96,8.05.5-.03,1.01-.1,1.5-.21l1.41-.33c3.69-.86,6.37-4.06,6.58-7.85l21-386.26Z"/>
      <circle class="cls-1" cx="164.8" cy="801.11" r="30.25"/>
    </g>
    <g>
      <path class="cls-1" d="m428.94,815.78c-7.08,9.72-13.46,19.92-19.09,30.54l21.84,461.32c.21,4.71,4.19,8.35,8.9,8.14.41-.02.82-.07,1.22-.14l3.91-.74c3.89-.74,6.76-4.05,6.95-8l24.35-520.75c-20.16,5.81-37.2,14.81-48.08,29.63Z"/>
      <path class="cls-1" d="m609.14,769.2c-18.34,3.06-39.58,4.3-61.27,5.74l22.42,509.22c.2,4.7,4.18,8.35,8.88,8.15.3-.01.6-.04.89-.09l6.79-1c4.05-.59,7.11-3.97,7.3-8.06l22.72-515.35c-2.52.47-5.02.94-7.73,1.39Z"/>
      <path class="cls-1" d="m709.01,691.58c-9.51,11.86-17.35,21.74-24.6,30.17l23,544.66c.2,4.71,4.17,8.36,8.88,8.16.19,0,.39-.02.58-.04l8.64-.95c4.2-.44,7.44-3.9,7.62-8.12l25-610.28c-14.18,7.89-31.05,13.87-49.12,36.4Z"/>
      <circle class="cls-1" cx="578.12" cy="611.93" r="30.25"/>
    </g>
    <g>
      <path class="cls-1" d="m1278.69,130.39c10.37-.03,18.76-8.46,18.73-18.83s-8.46-18.76-18.83-18.73c-10.35.03-18.73,8.43-18.73,18.78.02,10.38,8.45,18.79,18.83,18.78"/>
      <path class="cls-1" d="m880.97,439.09s-40,45.22-62.71,90.93l27.44,723.69c.17,4.7,4.13,8.37,8.83,8.2.11,0,.21-.01.32-.02l8.23-.59c4.35-.3,7.77-3.83,7.93-8.19l31.19-835.78c-8.7,8.99-16,16.56-21.23,21.77Z"/>
      <path class="cls-1" d="m952.96,361.23l31,884.81c.16,4.71,4.11,8.39,8.82,8.23,0,0,.01,0,.02,0l10.82-.4c4.48-.15,8.08-3.74,8.24-8.22l33.5-957.44c-25.15,11.77-60.08,41.98-92.4,73.02Z"/>
      <path class="cls-1" d="m1184.66,264.7c-5.94-.21-11.86-.74-17.74-1.57-27-4-49,2.46-75.41,10.3l-.27.08,32,969.77c.15,4.6,3.93,8.25,8.53,8.24h12c4.61.01,8.39-3.64,8.54-8.24l32.57-978.56-.22-.02Z"/>
      <path class="cls-1" d="m1228.76,263.13l35.87,982.39c.17,4.48,3.77,8.06,8.25,8.21l8.26.28c4.7.17,8.65-3.5,8.83-8.2,0,0,0,0,0-.01l35.31-985.52c-25.89-3.36-61.86.39-96.52,2.85Z"/>
      <path class="cls-1" d="m1457.08,536.73c-26.83-87.92-16.9-53.95-40.88-138.99-11.85-42-26.49-73.63-44.09-100l35.63,955.2c.16,4.35,3.58,7.89,7.93,8.19l8.5.61c4.69.35,8.78-3.18,9.12-7.87,0-.1.01-.21.02-.31l26.48-708.75c-.91-2.68-1.85-5.28-2.71-8.08Z"/>
      <circle class="cls-1" cx="1138.09" cy="30.25" r="30.25"/>
    </g>
    <g>
      <path class="cls-1" d="m1817.26,669.62c-.03,10.4,8.37,18.87,18.78,18.9,10.4.03,18.87-8.37,18.9-18.78.03-10.4-8.37-18.87-18.78-18.9-.02,0-.04,0-.06,0-10.39-.02-18.82,8.39-18.84,18.78h0"/>
      <path class="cls-1" d="m1571.95,695.97c-17.92-22.33-36.36-40.62-53.46-60.41l27.04,629.7c.18,4.22,3.42,7.67,7.62,8.12l5.5.59c4.68.52,8.89-2.85,9.4-7.53.02-.2.04-.39.04-.59l23.17-545.88c-5.8-7-12.06-14.91-19.32-24Z"/>
      <path class="cls-1" d="m1672.29,773.63c-4.36-.72-8.42-1.48-12.31-2.27l23,511.33c.22,4.07,3.28,7.41,7.31,8l5.09.75c4.66.69,9-2.53,9.69-7.19.04-.29.07-.58.08-.87l22.48-504.42c-19.62-1.28-38.67-2.55-55.34-5.33Z"/>
      <path class="cls-1" d="m1853.16,820.21c-11.93-16.28-31.32-25.61-54.15-31.3l23.86,517.13c.19,3.97,3.09,7.29,7,8l4.94.94c4.63.88,9.1-2.17,9.98-6.8.07-.4.12-.8.14-1.2l21.56-466.08c-4.04-7.15-8.49-14.06-13.33-20.69Z"/>
      <circle class="cls-1" cx="1693.81" cy="599.79" r="30.25"/>
    </g>
    <g>
      <path class="cls-1" d="m1960.74,959.96c-6.9-4.22-13.54-8.87-19.87-13.91l22.27,389.68c.22,3.78,2.9,6.96,6.59,7.82l2.07.49c4.58,1.07,9.16-1.77,10.24-6.35.11-.48.18-.97.21-1.47l20.26-353.75c-14.3-6.78-28.24-14.29-41.77-22.51Z"/>
      <path class="cls-1" d="m2081.72,1009.82l19.78,361.93c.2,3.63,2.67,6.73,6.16,7.74l2.76.79c4.51,1.32,9.24-1.28,10.55-5.79.18-.63.29-1.28.33-1.93l18.2-331.43c-17.63-12.57-37-22.13-57.78-31.31Z"/>
      <path class="cls-1" d="m2274.21,1165.23c-13.8-23.46-30.38-45.18-49.37-64.69l16.65,316.55c.19,3.41,2.38,6.39,5.59,7.57l2.41.89c4.42,1.63,9.32-.63,10.95-5.05.3-.81.47-1.65.52-2.51l13.25-252.76Z"/>
      <circle class="cls-1" cx="2113.62" cy="853.32" r="30.25"/>
    </g>
  </g>
  <g>
    <path class="cls-1" d="m2068.93,1589.93v291.41c0,52.67-20.49,83.1-67.89,83.1h-186.23c34.53-34.53,54.53-72.56,54.53-123.46,0-92.46-72.57-168.52-168.52-168.52s-167.99,74.31-167.99,168.52c0,52.08,18.31,87.19,54.59,123.46h-146.45c-19.89,0-53.25-5.26-66.71-15.79-15.79-13.47-24-31.61-24-55,0-72-57.35-156.83-118.78-201.88l-29.26,39.79c48,36.28,97.72,106.5,97.72,165.6,0,45.06-25.74,67.29-77.82,67.29h-81.93c-26.92,0-48.57,22.24-48.57,49.16h143.99c42.72,0,73.72-12.88,93-38.63,20.48,24.59,64.37,37.46,101.82,38.63h226.5c15.79,0,31.6-8.78,43.89-17,14.63,8.78,28.67,17,44.47,17h255.76c82.52,0,116.45-42.14,116.45-132.25v-335.89h-4.1c-24.34-.21-44.25,19.35-44.46,43.69,0,.26,0,.52,0,.78Zm-368.69,371.57c-67.89,0-115.28-53.83-115.28-119.94-1.17-69.64,49.16-122.3,115.86-122.3s116.44,50.91,116.44,122.3c0,67.28-50.32,119.93-117.02,119.93h0Zm573.97-416.04v424.24c0,23.41-19.9,43.89-43.89,43.89h-4.69v-423.66c-.22-24.34,19.34-44.25,43.68-44.47.26,0,.52,0,.78,0h4.11Zm-1306.56,190.75v145.11c0,52.67-20.49,83.1-67.89,83.1h-503.45c-47.4,0-67.88-30.43-67.88-83.1v-189.58h-48.57v42.72c-25.16-33.36-73.74-53.85-119.99-53.85-91.87,0-157.99,75.5-157.99,166.77s64.37,174.38,157.99,174.38c47.41,0,97.74-18.72,124.65-57.35l7-10c15.79,39.8,49.15,59.11,104.74,59.11h503.5c82.51,0,116.44-42.14,116.44-132.25v-189.53h-4.09c-24.34-.22-44.25,19.34-44.47,43.68,0,.26,0,.52,0,.78Zm-800.71,239.34c-66.12,0-114.11-57.94-114.11-128.16,0-65,46.24-120.53,114.11-120.53s113.51,48.57,113.51,120.53-46.22,128.16-113.51,128.16Zm-25.52-399.62c0,16.71-13.55,30.24-30.26,30.24s-30.24-13.55-30.24-30.26c0-16.7,13.55-30.24,30.25-30.24s30.25,13.54,30.25,30.25h0Zm97.64,0c0,16.71-13.55,30.26-30.26,30.26s-30.26-13.55-30.26-30.26c0-16.71,13.55-30.26,30.26-30.26s30.26,13.55,30.26,30.26h0Zm1443.46,0c0,16.71-13.55,30.24-30.26,30.24s-30.24-13.55-30.24-30.26c0-16.7,13.55-30.24,30.25-30.24s30.25,13.54,30.25,30.25h0Zm97.64,0c0,16.71-13.55,30.26-30.26,30.26s-30.26-13.55-30.26-30.26,13.55-30.26,30.26-30.26h.01c16.71,0,30.26,13.55,30.26,30.26h-.01Zm-938.5,524.76c0,16.71-13.54,30.25-30.25,30.25s-30.25-13.54-30.25-30.25,13.54-30.25,30.25-30.25h0c16.71,0,30.25,13.54,30.25,30.25Zm97.64,0c0,16.71-13.54,30.26-30.25,30.27s-30.26-13.54-30.27-30.25c0-16.71,13.54-30.26,30.25-30.27h.02c16.71,0,30.25,13.54,30.25,30.25Z"/>
    <path class="cls-1" d="m601.57,2849.94c-9.22.57-17.86,1.15-26.51,1.15-103.14,0-187.26-57.52-251.22-139.33-27.32,10-56.19,15.08-85.29,15-134.25,0-238.56-102.57-238.56-238.55s107.17-237.99,238.56-237.99,240.28,99.11,240.28,237.99c0,87.59-44.37,161.33-111.2,202.83,56.47,65.69,127.34,115.14,213.77,115.14,17.29,0,38-1.16,61.66-2.89.61,24.18-17.24,44.92-41.49,46.65Zm-178.58-361.76c0-108.33-77.8-188.99-184.39-188.99s-183.81,81.83-183.81,188.43,77.21,188.99,184.38,189.57c106.03.56,183.82-89.91,183.82-189.01Zm143.58,187.84v-273.7h4c23.97-.22,43.57,19.04,43.79,43,0,.26,0,.52,0,.78v273.13h-4.61c-23.57,0-43.18-20.16-43.18-43.22Zm127.89-120.42c0-89.89,65.11-164.22,155.57-164.22,45.53,0,93.35,20.17,118.12,53v-186.1h3.46c24.78,0,44.37,20.17,44.37,45v417.18h-1.15c-24.78,0-44.38-19-44.38-50.14-25.92,38-73.76,57-120.42,57-92.19,0-155.57-78.37-155.57-171.71Zm274.27,0c0-70.88-46.66-118.69-111.77-118.69s-112.36,54.74-112.36,118.69c0,70.3,47.25,126.19,112.36,126.19s111.77-51.86,111.77-126.19h0Zm128.63,0c0-89.89,65.12-164.22,155.58-164.22,45.52,0,93.34,20.17,118.11,53v-186.1h3.47c24.78,0,44.38,20.17,44.38,45v417.18h-1.16c-24.78,0-44.37-19-44.37-50.14-25.93,38-73.76,57-120.42,57-92.21,0-155.59-78.37-155.59-171.71h0Zm274.28,0c0-70.88-46.67-118.69-111.78-118.69s-112.36,54.74-112.36,118.69c0,70.3,47.25,126.19,112.36,126.19s111.78-51.86,111.78-126.19h0Zm148.88,120.42v-273.7h4c23.97-.22,43.57,19.04,43.79,43,0,.26,0,.52,0,.78v273.13h-4.61c-23.61,0-43.18-20.16-43.18-43.22Zm102.65,130.7v-2.85c32.85,4.61,56.48,6.34,76.65-7.49,16.13-9.8,37.45-44.85,58.76-94.4l-127.91-299.64h17.86c32.27,0,39.19,12.1,45.53,27.66l91,216.66,101.47-244.92h51.87l-160.22,367.52c-21.9,50.7-62.24,81.82-107.18,81.82h-4c-24.24,0-43.84-20.16-43.84-44.37h.03Zm327.65-251.13c0-89.89,65.11-164.22,155.57-164.22,45.52,0,93.36,20.17,118.12,53v-42.06h47.83v318.08h-1.15c-24.78,0-44.37-19-44.37-50.14-25.94,38-73.76,57-120.43,57-92.23.06-155.6-79.46-155.6-171.65h.03Zm274.28,0c0-70.88-46.68-118.69-111.78-118.69s-112.36,54.74-112.36,118.69c0,69.15,47.25,126.19,112.36,126.19s111.75-53.02,111.75-126.19h.03Zm-1634.59-297.62c-16.71,0-30.25,13.54-30.25,30.25s13.54,30.25,30.25,30.25,30.25-13.54,30.25-30.25h0c0-16.71-13.54-30.25-30.25-30.25Zm953.9,0c-16.71,0-30.24,13.55-30.24,30.26s13.55,30.24,30.26,30.24c16.7,0,30.24-13.55,30.24-30.25s-13.54-30.25-30.25-30.25h-.01Z"/>
  </g>
</svg>