<?xml version="1.0" encoding="UTF-8"?>
<svg xmlns="http://www.w3.org/2000/svg" version="1.1" viewBox="0 0 775.6 276.3">
  <defs>
    <style>
      .cls-1 {
        fill: #fff;
      }
    </style>
  </defs>
  <!-- Generator: Adobe Illustrator 28.6.0, SVG Export Plug-In . SVG Version: 1.2.0 Build 709)  -->
  <g>
    <g id="Capa_1">
      <g>
        <path id="Path_718-2" class="cls-1" d="M118.7,266l-1.3.6c-.4.2-.8.2-1.2.2-1,0-1.8-.7-2.1-1.7l-4.9-11.9h-20.1l-4.9,11.9c-.3,1-1.1,1.6-2.1,1.7-.4,0-.8,0-1.2-.2l-1.3-.6c-1-.3-1.6-1.1-1.7-2.1,0-.5.2-1,.4-1.4l15.3-37.3c.5-1.7,2.1-2.9,3.9-3h3.3c1.8,0,3.3,1.3,3.9,3l15.3,37.3c.2.4.3.9.4,1.4,0,1-.7,1.9-1.7,2.1h0ZM99.1,228.7l-7.5,18.3h14.9l-7.5-18.3h0Z"/>
        <path id="Path_719-2" class="cls-1" d="M196.9,266.5h-1.3c-1.5,0-2.8-1.3-2.8-2.8v-29.5l-9.2,13.1c-.8,1.1-1.6,2.1-2.9,2.1h-.9c-1.4,0-2.1-.9-2.9-2.1l-9.2-13.1v29.5c0,1.5-1.2,2.8-2.8,2.8h-1.3c-1.5,0-2.7-1.2-2.8-2.7,0,0,0,0,0-.1v-38.8c0-1.4,1-2.6,2.4-2.6,0,0,.2,0,.2,0h1.7c1.2.2,2.3,1,2.9,2.1l12.4,17.7,12.4-17.7c.6-.9,1.6-2.1,2.8-2.1h1.7c1.4,0,2.5,1,2.6,2.4,0,0,0,.2,0,.2v38.8c0,1.5-1.2,2.8-2.6,2.8,0,0,0,0-.1,0h0Z"/>
        <path id="Path_720-2" class="cls-1" d="M271.1,266.5h-28.4c-1.4,0-2.5-1.1-2.6-2.5,0,0,0,0,0-.1v-39c0-1.4,1.1-2.6,2.5-2.6,0,0,.1,0,.2,0h27c1.4-.1,2.6,1,2.8,2.4,0,0,0,.1,0,.2v1c0,1.4-1.1,2.6-2.6,2.6,0,0-.1,0-.2,0h-22.9v12.9h21c1.4-.1,2.6,1,2.8,2.4,0,0,0,.1,0,.2v1c0,1.4-1.1,2.6-2.6,2.6,0,0-.1,0-.2,0h-21v12.6h24.1c1.4-.1,2.7,1,2.8,2.4,0,0,0,.1,0,.2v1c0,1.4-1.1,2.6-2.6,2.6,0,0-.1,0-.2,0h0Z"/>
        <path id="Path_721-2" class="cls-1" d="M339.8,266.5h-22.8c-1.4.1-2.6-1-2.8-2.4,0,0,0-.1,0-.2v-1c0-1.4,1.1-2.6,2.6-2.6,0,0,.1,0,.2,0h21.5c3.1,0,4-3.3,4-5.3v-3.7c.2-2.1-1.4-3.9-3.4-4-.2,0-.4,0-.6,0h-15.1c-5-.1-9.1-4.3-9-9.4v-5.8c.4-5.5,5-9.8,10.5-9.7h18.2c1.5-.1,2.7,1,2.9,2.5,0,0,0,.1,0,.2v1c0,1.5-1.2,2.6-2.7,2.6,0,0,0,0-.1,0h-16.7c-2.5-.4-4.9,1.4-5.2,4,0,.3,0,.5,0,.8v3.5c0,2.7,2.3,4.8,5,4.7,0,0,0,0,.1,0h14.8c4.3-.2,8,3.1,8.2,7.5,0,.3,0,.6,0,.9v6.3c.6,5.1-3,9.8-8.1,10.4-.5,0-.9,0-1.4,0h0Z"/>
        <path id="Path_722-2" class="cls-1" d="M524.8,266l-1,.5c-1.3.7-2.9.2-3.6-1.1,0,0,0,0,0,0l-8.7-17.7h-13.2v16.1c0,1.5-1.2,2.8-2.8,2.8h-1.3c-1.5,0-2.7-1.2-2.8-2.7,0,0,0,0,0-.1v-39.1c0-1.3,1-2.3,2.2-2.3,0,0,.2,0,.2,0l19.3-.3c5.4-.7,10.4,3.2,11.1,8.7,0,.6,0,1.2,0,1.8v4.4c.2,4.3-2.3,8.3-6.3,9.8l7.7,15.6c.2.4.3.9.4,1.4,0,1-.5,1.9-1.4,2.4h0ZM517.6,233.6c0-2.8-2.1-5.1-4.8-5.1,0,0,0,0-.1,0h-9.1c-2.8,0-5.1,2.2-5.2,5.1,0,0,0,0,0,0v7.8h13.7c2.9,0,5.3-2.4,5.5-5.3v-2.4h0Z"/>
        <path id="Path_723-2" class="cls-1" d="M738.4,248.8h-13.2v14.9c0,1.5-1.2,2.8-2.8,2.8h-1.3c-1.5,0-2.7-1.1-2.8-2.6,0,0,0,0,0-.1v-38c0-2.6,1-3.5,2.5-3.5l19.3-.3c5.4-.7,10.4,3.2,11.1,8.7,0,.6,0,1.2,0,1.8v5.6c.2,4.3-2.3,8.3-6.3,9.8-2.2.7-4.4,1-6.6,1h0ZM744.5,233.6c0-2.8-2.1-5.1-4.8-5.1,0,0,0,0-.1,0h-9.1c-2.8,0-5.1,2.2-5.2,5.1,0,0,0,0,0,0v8.9h13.7c2.9,0,5.4-2.4,5.5-5.3v-3.6h0Z"/>
        <path id="Path_724-2" class="cls-1" d="M592.1,266.5h-15c-5.7,0-10.3-4.7-10.2-10.5v-23.5c.2-5.8,4.9-10.4,10.6-10.3h14.3c5.7,0,10.4,4.5,10.6,10.3v23.5c0,5.7-4.6,10.4-10.2,10.5h0ZM595.5,233.6c0-2.8-2.3-5.1-5.1-5.1h-11.7c-2.8,0-5.1,2.3-5.1,5.1h0v21.5c0,2.8,2.1,5.1,4.9,5.1,0,0,0,0,.1,0h11.8c2.8,0,5.1-2.3,5.1-5.1h0v-21.5h0Z"/>
        <path id="Path_728-2" class="cls-1" d="M105.1,74.4h-56.7c-8.5.6-15.9-6-16.4-14.6,0,0,0-.2,0-.3v-13.2c0-9.5,6.4-15.2,17.1-15.2h72c7.1.4,13.2-5.2,13.5-12.4,0-.2,0-.4,0-.6v-3.9c-.1-7.3-6.1-13.1-13.3-13-.2,0-.4,0-.5,0H43.1C20.5.8,1.6,18.4,0,41.3v22.1c-.3,21.3,16.5,38.7,37.5,39.1h57.8c6.2-.6,11.6,4,12.2,10.2,0,.7,0,1.4,0,2.1v14.3c0,1.8-.3,17.4-12.2,17.4H15.5c-7-.4-13.1,5-13.5,12.1,0,.3,0,.6,0,.9v3.9c0,7.1,5.6,13,12.7,13,.3,0,.6,0,.9,0h84.7c23.8,0,39.2-16.9,39.2-43v-23.9c0-24.3-17.2-35.1-34.3-35.1h0Z"/>
        <path id="Path_729-2" class="cls-1" d="M431.4,3.6l-5-2.2c-3.5-1.7-7.5-1.8-11.1-.4-3.2,1.6-5.5,4.4-6.5,7.9l-36.7,101.1c-4.5,12.7-8,24-10.1,31.3-2.1-7.2-5.6-18.6-10.1-31.3l-36.7-101c-1-3.4-3.3-6.3-6.5-7.9-3.6-1.4-7.7-1.3-11.2.5l-4.9,2.1c-6.6,2.2-10.3,9.4-8.1,16.1.1.4.3.9.5,1.3l53.2,139.7c3.4,8.7,11.9,15.8,18.9,15.8h9.5c7.1,0,15.6-7.1,18.9-15.8l53.2-139.7c2.8-6.4,0-14-6.4-16.8-.4-.2-.8-.3-1.2-.5h0Z"/>
        <path id="Path_730-2" class="cls-1" d="M251.4,15.8C248.1,7.1,239.6,0,232.5,0h-9.5c-7.1,0-15.6,7.1-18.9,15.8l-53.2,139.7c-2.8,6.4,0,14,6.4,16.8.4.2.8.3,1.2.5l5,2.2c2,.9,4.2,1.3,6.4,1.4,1.6,0,3.2-.3,4.7-1,3.2-1.6,5.5-4.4,6.5-7.9l36.7-101.1c4.5-12.7,8-24.1,10.1-31.3,2.1,7.2,5.6,18.6,10.1,31.3l36.6,101c1,3.4,3.3,6.3,6.5,7.9,3.6,1.4,7.7,1.3,11.2-.5l4.9-2.1c6.6-2.2,10.3-9.4,8.1-16.1-.1-.4-.3-.9-.5-1.3L251.5,15.8h0Z"/>
        <path id="Path_731-2" class="cls-1" d="M604,3.6l-5-2.2c-3.5-1.7-7.5-1.8-11.1-.4-3.2,1.6-5.5,4.4-6.5,7.9l-36.7,101.1c-4.5,12.7-8,24.1-10.1,31.3-2.1-7.2-5.6-18.6-10.1-31.3l-36.6-101c-1-3.4-3.3-6.3-6.5-7.9-3.6-1.4-7.7-1.3-11.2.5l-4.9,2.1c-6.6,2.2-10.3,9.4-8.1,16.1.1.4.3.9.5,1.3l53.2,139.7c3.4,8.7,11.9,15.8,18.9,15.8h9.5c7.1,0,15.6-7.1,18.9-15.8l53.2-139.7c2.8-6.4,0-14-6.4-16.8-.4-.2-.8-.3-1.2-.5h0Z"/>
        <path id="Path_732-2" class="cls-1" d="M770,5.6l-4.2-2.9c-2.3-1.7-5.1-2.6-8-2.6-4.2,0-8.1,2.1-10.5,5.5l-43.1,60.6-42.8-60.6c-2.5-3.5-6.6-5.5-10.8-5.5-2.9,0-5.6,1-8,2.6l-4.2,2.9c-3.6,2.4-5.7,6.6-5.5,11-.2,2.9.7,5.8,2.4,8.2l53,73.8v64c0,7.5,5.8,13.6,13.2,13.7.1,0,.2,0,.3,0h4.9c7.4,0,13.4-5.9,13.5-13.4,0-.1,0-.2,0-.3v-64l53-73.8c1.7-2.4,2.5-5.3,2.4-8.2.2-4.4-1.9-8.6-5.5-11h0Z"/>
        <path id="Path_733-2" class="cls-1" d="M676.9,266.5l-21.8.3c-6,.5-11.3-4-11.9-10.2,0-.3,0-.6,0-.9v-30.7c0-1.5,1.1-2.8,2.6-2.8,0,0,0,0,.1,0h1.3c1.5,0,2.8,1.3,2.8,2.8v29.6c0,3.1,2.5,5.6,5.5,5.6h11c3.1,0,5.5-2.5,5.5-5.6v-29.6c0-1.5,1.1-2.8,2.6-2.8,0,0,0,0,.1,0h1.3c1.5,0,2.8,1.3,2.8,2.8v39.2c0,1.2-.8,2.2-1.9,2.2,0,0,0,0,0,0h0Z"/>
        <path id="Path_734-2" class="cls-1" d="M37.1,241.2h-14.3c-1.5,0-2.7,1.2-2.7,2.8v.7c0,1.5,1.2,2.8,2.7,2.8h10.2v7.1c0,3.1-2.5,5.6-5.5,5.6h-10.9c-3.1,0-5.5-2.5-5.5-5.6v-20.9c0-2.8,2.1-5.1,4.8-5.2,0,0,0,0,.1,0h19.6c1.4,0,2.6-1.2,2.6-2.6v-.8c0-1.5-1.2-2.8-2.8-2.8H14.5c-5.8,0-10.4,4.7-10.4,10.6,0,0,0,.1,0,.2v22.8c-.2,5.9,4.4,10.9,10.2,11.1.6,0,1.1,0,1.7,0h1.4c3.1,0,7.9,0,12.2-.1,5.7,0,10.2-4.8,10.2-10.5v-12.2c0-1.5-1.2-2.8-2.7-2.8h0Z"/>
        <path id="Path_735-2" class="cls-1" d="M448,241.2h-14.2c-1.5,0-2.7,1.2-2.7,2.8v.7c0,1.5,1.2,2.8,2.7,2.8h10.2v7.1c0,3.1-2.5,5.6-5.5,5.6h-11c-3.1,0-5.5-2.5-5.5-5.6v-20.9c0-2.8,2.1-5.1,4.8-5.2,0,0,0,0,.1,0h19.6c1.4,0,2.6-1.2,2.6-2.6h0v-.8c0-1.5-1.2-2.8-2.8-2.8h-20.8c-5.8,0-10.4,4.7-10.4,10.6,0,0,0,.1,0,.2v22.8c-.2,5.9,4.4,10.9,10.3,11.1.5,0,1.1,0,1.6,0h1.4c3.1,0,7.9,0,12.2-.1,5.7,0,10.2-4.8,10.2-10.5v-12.2c0-1.5-1.2-2.8-2.7-2.8h0,0Z"/>
      </g>
    </g>
  </g>
</svg>